[img]http://imgcrave.com/u/f3Rnt.jpg[/img]


IMDB Link:  
http://www.imdb.com/title/tt1918806/

Description:
ENTRANCE is about the limits of our perception, how the things lurking on the periphery of our lives can lead to horrific conclusions; about how she fell out of love with the city, but it wouldn't let her go.

MediaInfo:
General
Complete name                            : Entrance.2012.DVDSCR.AC3-2.0.XviD-SiC.avi
Format                                   : AVI
Format/Info                              : Audio Video Interleave
File size                                : 1.36 GiB
Duration                                 : 1h 33mn
Overall bit rate                         : 2 094 Kbps

Video
ID                                       : 0
Format                                   : MPEG-4 Visual
Format profile                           : Advanced Simple@L5
Format settings, BVOP                    : 2
Format settings, QPel                    : No
Format settings, GMC                     : No warppoints
Format settings, Matrix                  : Default (H.263)
Muxing mode                              : Packed bitstream
Codec ID                                 : XVID
Codec ID/Hint                            : XviD
Duration                                 : 1h 33mn
Bit rate                                 : 1 703 Kbps
Width                                    : 720 pixels
Height                                   : 400 pixels
Display aspect ratio                     : 16:9
Frame rate                               : 23.976 fps
Color space                              : YUV
Chroma subsampling                       : 4:2:0
Bit depth                                : 8 bits
Scan type                                : Progressive
Compression mode                         : Lossy
Bits/(Pixel*Frame)                       : 0.247
Stream size                              : 1.11 GiB (81%)
Writing library                          : XviD 1.1.2 (UTC 2006-11-01)

Audio
ID                                       : 1
Format                                   : AC-3
Format/Info                              : Audio Coding 3
Mode extension                           : CM (complete main)
Codec ID                                 : 2000
Duration                                 : 1h 33mn
Bit rate mode                            : Constant
Bit rate                                 : 384 Kbps
Channel(s)                               : 2 channels
Channel positions                        : Front: L R
Sampling rate                            : 48.0 KHz
Bit depth                                : 16 bits
Compression mode                         : Lossy
Stream size                              : 255 MiB (18%)
Alignment                                : Aligned on interleaves
Interleave, duration                     : 64 ms (1.53 video frames)
Interleave, preload duration             : 192 ms
Title                                    : VTS_01_1 T80 2_0ch 384Kbps DELAY 0ms
  
http://imgcrave.com/u/VF02H.png  
http://imgcrave.com/u/GJB9.png  
http://imgcrave.com/u/U3pLY.png  
http://imgcrave.com/u/xcjhA.png		
